<svg width="48" height="49" viewBox="0 0 48 49" fill="none" xmlns="http://www.w3.org/2000/svg">
<path d="M17.0001 26.5H30.1359C31.1487 26.5 31.6551 26.5 32.0582 26.3112C32.4134 26.1448 32.7118 25.8777 32.9163 25.5432C33.1485 25.1633 33.2044 24.66 33.3163 23.6534L33.9013 18.3883C33.9355 18.0809 33.9525 17.9272 33.9031 17.8082C33.8597 17.7037 33.7821 17.617 33.683 17.5623C33.5702 17.5 33.4155 17.5 33.1062 17.5H16.5001M14 14.5H15.2484C15.5131 14.5 15.6454 14.5 15.7489 14.5503C15.84 14.5946 15.9155 14.6656 15.9654 14.7538C16.0221 14.8539 16.0304 14.986 16.0469 15.2501L16.9531 29.7499C16.9696 30.014 16.9779 30.1461 17.0346 30.2462C17.0845 30.3344 17.16 30.4054 17.2511 30.4497C17.3546 30.5 17.4869 30.5 17.7516 30.5H31M19.5 34H19.51M28.5 34H28.51M20 34C20 34.2761 19.7761 34.5 19.5 34.5C19.2239 34.5 19 34.2761 19 34C19 33.7239 19.2239 33.5 19.5 33.5C19.7761 33.5 20 33.7239 20 34ZM29 34C29 34.2761 28.7761 34.5 28.5 34.5C28.2239 34.5 28 34.2761 28 34C28 33.7239 28.2239 33.5 28.5 33.5C28.7761 33.5 29 33.7239 29 34Z" stroke="white" stroke-opacity="0.7" stroke-width="2" stroke-linecap="round" stroke-linejoin="round"/>
</svg>
