<svg width="42" height="43" viewBox="0 0 42 43" fill="none" xmlns="http://www.w3.org/2000/svg">
<path d="M20.4621 0.758911C20.82 0.726705 21.18 0.726705 21.5378 0.758911L24.2118 0.999577C24.5697 1.03178 24.9239 1.09606 25.2702 1.19165L27.8583 1.90591C28.2046 2.00149 28.5417 2.12799 28.8654 2.28387L31.2843 3.44878C31.608 3.60467 31.9171 3.78931 32.2077 4.00049L34.3798 5.57859C34.6705 5.78977 34.9416 6.02663 35.1899 6.28632L37.0453 8.2269C37.2935 8.48659 37.518 8.76805 37.7159 9.0679L39.195 11.3086C39.3929 11.6084 39.5635 11.9254 39.7047 12.2558L40.7599 14.7246C40.9011 15.055 41.0124 15.3973 41.0923 15.7476L41.6898 18.3651C41.7697 18.7154 41.818 19.0722 41.8341 19.4311L41.9546 22.1132C41.9707 22.4721 41.9546 22.8318 41.9063 23.1878L41.546 25.8483C41.4977 26.2043 41.4176 26.5553 41.3066 26.897L40.4769 29.4505C40.3659 29.7921 40.2244 30.1232 40.0542 30.4396L38.7819 32.8038C38.6117 33.1202 38.4133 33.4206 38.1893 33.7015L36.5154 35.8006C36.2914 36.0815 36.0426 36.3417 35.772 36.5781L33.7501 38.3446C33.4796 38.581 33.1883 38.7926 32.8799 38.9768L30.5751 40.3539C30.2667 40.5382 29.9423 40.6944 29.606 40.8206L27.0923 41.764C26.756 41.8902 26.4089 41.986 26.0554 42.0501L23.4137 42.5295C23.0602 42.5937 22.7017 42.626 22.3424 42.626H19.6576C19.2983 42.626 18.9397 42.5937 18.5862 42.5295L15.9445 42.0501C15.591 41.986 15.244 41.8902 14.9076 41.764L12.394 40.8206C12.0576 40.6944 11.7333 40.5382 11.4248 40.3539L9.12006 38.9768C8.81163 38.7926 8.52038 38.581 8.24982 38.3446L6.22795 36.5781C5.95739 36.3417 5.7086 36.0815 5.48459 35.8006L3.81063 33.7015C3.58662 33.4206 3.38829 33.1202 3.21804 32.8038L1.94579 30.4396C1.77553 30.1232 1.63404 29.7921 1.52302 29.4505L0.693362 26.897C0.582338 26.5553 0.50223 26.2044 0.454002 25.8483L0.0936082 23.1878C0.0453806 22.8318 0.0292291 22.4721 0.0453484 22.1132L0.165804 19.4311C0.181923 19.0722 0.230247 18.7154 0.310194 18.3651L0.907625 15.7476C0.987572 15.3973 1.09882 15.055 1.24003 14.7246L2.29523 12.2558C2.43644 11.9254 2.60703 11.6084 2.80496 11.3086L4.28403 9.0679C4.48195 8.76805 4.70641 8.48659 4.9547 8.2269L6.81008 6.28632C7.05837 6.02663 7.32948 5.78977 7.62014 5.57859L9.79222 4.00049C10.0829 3.78931 10.3919 3.60467 10.7156 3.44878L13.1346 2.28387C13.4583 2.12799 13.7953 2.00149 14.1417 1.90591L16.7297 1.19165C17.0761 1.09606 17.4303 1.03178 17.7881 0.999577L20.4621 0.758911Z" fill="#FF7800"/>
<g clip-path="url(#clip0_1_13261)">
<path d="M27.959 19.7813C28.2684 17.7126 26.6935 16.6006 24.5398 15.8588L25.2385 13.0566L23.5327 12.6315L22.8526 15.36C22.4041 15.2481 21.9436 15.1427 21.4859 15.0383L22.1709 12.2918L20.4662 11.8668L19.7672 14.6681C19.3961 14.5836 19.0316 14.5001 18.6779 14.4121L18.6799 14.4033L16.3276 13.8159L15.8738 15.6378C15.8738 15.6378 17.1394 15.9279 17.1127 15.9457C17.8035 16.1181 17.9284 16.5754 17.9076 16.9378L17.1118 20.1302C17.1594 20.1423 17.2211 20.1598 17.2891 20.1871C17.2322 20.173 17.1717 20.1576 17.1088 20.1425L15.9933 24.6146C15.9089 24.8245 15.6946 25.1394 15.2117 25.0198C15.2288 25.0446 13.9719 24.7104 13.9719 24.7104L13.125 26.663L15.3448 27.2164C15.7578 27.32 16.1625 27.4283 16.561 27.5302L15.8551 30.3646L17.559 30.7896L18.258 27.9854C18.7235 28.1117 19.1752 28.2283 19.6174 28.3382L18.9207 31.1292L20.6266 31.5543L21.3324 28.7252C24.2412 29.2757 26.4283 29.0538 27.3489 26.4228C28.0907 24.3045 27.312 23.0828 25.7817 22.286C26.8963 22.029 27.7352 21.2956 27.959 19.7813ZM24.0617 25.2464C23.5345 27.3647 19.9681 26.2196 18.8118 25.9325L19.7485 22.1774C20.9047 22.4661 24.6126 23.0373 24.0617 25.2464ZM24.5892 19.7506C24.1083 21.6774 21.1399 20.6985 20.177 20.4585L21.0263 17.0529C21.9892 17.2929 25.09 17.7409 24.5892 19.7506Z" fill="white"/>
</g>
<defs>
<clipPath id="clip0_1_13261">
<rect width="21" height="21" fill="white" transform="translate(10.5 11.2105)"/>
</clipPath>
</defs>
</svg>
