<svg width="24" height="25" viewBox="0 0 24 25" fill="none" xmlns="http://www.w3.org/2000/svg">
<path d="M22 9C22 12.59 19.09 15.5 15.5 15.5C15.33 15.5 15.15 15.49 14.98 15.48C14.73 12.31 12.19 9.76999 9.01999 9.51999C9.00999 9.34999 9 9.17 9 9C9 5.41 11.91 2.5 15.5 2.5C19.09 2.5 22 5.41 22 9Z" stroke="white" stroke-opacity="0.7" stroke-width="1.5" stroke-linecap="round" stroke-linejoin="round"/>
<path d="M15 16C15 19.59 12.09 22.5 8.5 22.5C4.91 22.5 2 19.59 2 16C2 12.41 4.91 9.5 8.5 9.5C8.67 9.5 8.84999 9.50999 9.01999 9.51999C12.19 9.76999 14.73 12.31 14.98 15.48C14.99 15.65 15 15.83 15 16Z" stroke="white" stroke-opacity="0.7" stroke-width="1.5" stroke-linecap="round" stroke-linejoin="round"/>
<path d="M7.62 15.12L8.5 13.5L9.38 15.12L11 16L9.38 16.88L8.5 18.5L7.62 16.88L6 16L7.62 15.12Z" stroke="white" stroke-opacity="0.7" stroke-width="1.5" stroke-linecap="round" stroke-linejoin="round"/>
</svg>
