<svg width="24" height="25" viewBox="0 0 24 25" fill="none" xmlns="http://www.w3.org/2000/svg">
<path d="M23 16.47C23 20.34 19.87 23.47 16 23.47L17.05 21.72" stroke="white" stroke-opacity="0.7" stroke-width="1.5" stroke-linecap="round" stroke-linejoin="round"/>
<path d="M1 8.46997C1 4.59997 4.13 1.46997 8 1.46997L6.95 3.21997" stroke="white" stroke-opacity="0.7" stroke-width="1.5" stroke-linecap="round" stroke-linejoin="round"/>
<path d="M6.62 13.57H9.43C10.05 13.57 10.56 14.13 10.56 14.7C10.56 15.32 10.06 15.83 9.43 15.83H6.62V13.57Z" stroke="white" stroke-opacity="0.7" stroke-width="1.5" stroke-miterlimit="10" stroke-linecap="round" stroke-linejoin="round"/>
<path d="M6.62 15.83H9.84C10.55 15.83 11.13 16.33 11.13 16.96C11.13 17.58 10.55 18.09 9.84 18.09H6.62V15.83Z" stroke="white" stroke-opacity="0.7" stroke-width="1.5" stroke-miterlimit="10" stroke-linecap="round" stroke-linejoin="round"/>
<path d="M8.42004 18.08V19.2" stroke="white" stroke-opacity="0.7" stroke-width="1.5" stroke-miterlimit="10" stroke-linecap="round" stroke-linejoin="round"/>
<path d="M8.42004 12.45V13.57" stroke="white" stroke-opacity="0.7" stroke-width="1.5" stroke-miterlimit="10" stroke-linecap="round" stroke-linejoin="round"/>
<path d="M14.85 15.83C14.85 19.24 12.09 22 8.68001 22C5.27001 22 2.51001 19.24 2.51001 15.83C2.51001 12.42 5.27001 9.65997 8.68001 9.65997C8.84001 9.65997 8.99001 9.66999 9.16001 9.67999C12.19 9.90999 14.61 12.33 14.84 15.36C14.84 15.51 14.85 15.66 14.85 15.83Z" stroke="white" stroke-opacity="0.7" stroke-width="1.5" stroke-miterlimit="10" stroke-linecap="round" stroke-linejoin="round"/>
<path d="M21.5 9.16998C21.5 12.58 18.74 15.34 15.33 15.34H14.84C14.61 12.31 12.19 9.88997 9.16003 9.65997V9.16998C9.16003 5.75998 11.92 3 15.33 3C18.74 3 21.5 5.75998 21.5 9.16998Z" stroke="white" stroke-opacity="0.7" stroke-width="1.5" stroke-miterlimit="10" stroke-linecap="round" stroke-linejoin="round"/>
</svg>
