<svg width="24" height="25" viewBox="0 0 24 25" fill="none" xmlns="http://www.w3.org/2000/svg">
<path d="M12 17.5C12 20.2614 14.2386 22.5 17 22.5C19.7614 22.5 22 20.2614 22 17.5C22 14.7386 19.7614 12.5 17 12.5C14.2386 12.5 12 14.7386 12 17.5ZM12 17.5C12 16.3742 12.3721 15.3353 13 14.4995V5.5M12 17.5C12 18.3254 12.2 19.104 12.5541 19.7901C11.7117 20.5018 9.76584 21 7.5 21C4.46243 21 2 20.1046 2 19V5.5M13 5.5C13 6.60457 10.5376 7.5 7.5 7.5C4.46243 7.5 2 6.60457 2 5.5M13 5.5C13 4.39543 10.5376 3.5 7.5 3.5C4.46243 3.5 2 4.39543 2 5.5M2 14.5C2 15.6046 4.46243 16.5 7.5 16.5C9.689 16.5 11.5793 16.035 12.4646 15.3618M13 10C13 11.1046 10.5376 12 7.5 12C4.46243 12 2 11.1046 2 10" stroke="white" stroke-opacity="0.7" stroke-width="2" stroke-linecap="round" stroke-linejoin="round"/>
</svg>
