<svg width="24" height="25" viewBox="0 0 24 25" fill="none" xmlns="http://www.w3.org/2000/svg">
<path d="M9.5 8H13.75C14.9926 8 16 9.00736 16 10.25C16 11.4926 14.9926 12.5 13.75 12.5H9.5H14.25C15.4926 12.5 16.5 13.5074 16.5 14.75C16.5 15.9926 15.4926 17 14.25 17H9.5M9.5 8H8M9.5 8V17M9.5 17H8M10 6.5V8M10 17V18.5M13 6.5V8M13 17V18.5M22 12.5C22 18.0228 17.5228 22.5 12 22.5C6.47715 22.5 2 18.0228 2 12.5C2 6.97715 6.47715 2.5 12 2.5C17.5228 2.5 22 6.97715 22 12.5Z" stroke="white" stroke-opacity="0.7" stroke-width="2" stroke-linecap="round" stroke-linejoin="round"/>
</svg>
