<svg width="24" height="25" viewBox="0 0 24 25" fill="none" xmlns="http://www.w3.org/2000/svg">
<path d="M14.2617 15.9385H9.26172" stroke="white" stroke-opacity="0.7" stroke-width="1.5" stroke-miterlimit="10" stroke-linecap="round" stroke-linejoin="round"/>
<path d="M11.7617 13.498V18.498" stroke="white" stroke-opacity="0.7" stroke-width="1.5" stroke-miterlimit="10" stroke-linecap="round" stroke-linejoin="round"/>
<path d="M12.66 3.01814L12.63 3.08814L9.72996 9.81814H6.87996C6.19996 9.81814 5.54996 9.95814 4.95996 10.2081L6.70996 6.02814L6.74996 5.92814L6.81996 5.76814C6.83996 5.70814 6.85996 5.64814 6.88996 5.59814C8.19996 2.56814 9.67996 1.87814 12.66 3.01814Z" stroke="white" stroke-opacity="0.7" stroke-width="1.5" stroke-linecap="round" stroke-linejoin="round"/>
<path d="M18.05 10.0181C17.6 9.87814 17.12 9.81813 16.64 9.81813H9.72998L12.63 3.08814L12.66 3.01814C12.81 3.06814 12.95 3.13814 13.1 3.19814L15.31 4.12814C16.54 4.63814 17.4 5.16814 17.92 5.80814C18.02 5.92814 18.1 6.03814 18.17 6.16814C18.26 6.30814 18.33 6.44813 18.37 6.59813C18.41 6.68813 18.44 6.77814 18.46 6.85814C18.73 7.69814 18.57 8.72814 18.05 10.0181Z" stroke="white" stroke-opacity="0.7" stroke-width="1.5" stroke-linecap="round" stroke-linejoin="round"/>
<path d="M21.5217 14.6984V16.6484C21.5217 16.8484 21.5117 17.0484 21.5017 17.2484C21.3117 20.7384 19.3617 22.4984 15.6617 22.4984H7.86172C7.62172 22.4984 7.38172 22.4784 7.15172 22.4484C3.97172 22.2384 2.27172 20.5384 2.06172 17.3584C2.03172 17.1284 2.01172 16.8884 2.01172 16.6484V14.6984C2.01172 12.6884 3.23172 10.9584 4.97172 10.2084C5.57172 9.95836 6.21172 9.81836 6.89172 9.81836H16.6517C17.1417 9.81836 17.6217 9.88836 18.0617 10.0184C20.0517 10.6284 21.5217 12.4884 21.5217 14.6984Z" stroke="white" stroke-opacity="0.7" stroke-width="1.5" stroke-linecap="round" stroke-linejoin="round"/>
<path d="M6.71 6.02814L4.96 10.2081C3.22 10.9581 2 12.6881 2 14.6981V11.7681C2 8.92814 4.02 6.55814 6.71 6.02814Z" stroke="white" stroke-opacity="0.7" stroke-width="1.5" stroke-linecap="round" stroke-linejoin="round"/>
<path d="M21.5186 11.7677V14.6977C21.5186 12.4977 20.0586 10.6277 18.0586 10.0277C18.5786 8.72766 18.7286 7.70766 18.4786 6.85766C18.4586 6.76766 18.4286 6.67766 18.3886 6.59766C20.2486 7.55766 21.5186 9.52766 21.5186 11.7677Z" stroke="white" stroke-opacity="0.7" stroke-width="1.5" stroke-linecap="round" stroke-linejoin="round"/>
</svg>
