<svg width="24" height="25" viewBox="0 0 24 25" fill="none" xmlns="http://www.w3.org/2000/svg">
<path d="M9 7.5H4.6C4.03995 7.5 3.75992 7.5 3.54601 7.60899C3.35785 7.70487 3.20487 7.85785 3.10899 8.04601C3 8.25992 3 8.53995 3 9.1V19.9C3 20.4601 3 20.7401 3.10899 20.954C3.20487 21.1422 3.35785 21.2951 3.54601 21.391C3.75992 21.5 4.03995 21.5 4.6 21.5H9M9 21.5H15M9 21.5L9 5.1C9 4.53995 9 4.25992 9.10899 4.04601C9.20487 3.85785 9.35785 3.70487 9.54601 3.60899C9.75992 3.5 10.0399 3.5 10.6 3.5L13.4 3.5C13.9601 3.5 14.2401 3.5 14.454 3.60899C14.6422 3.70487 14.7951 3.85785 14.891 4.04601C15 4.25992 15 4.53995 15 5.1V21.5M15 11.5H19.4C19.9601 11.5 20.2401 11.5 20.454 11.609C20.6422 11.7049 20.7951 11.8578 20.891 12.046C21 12.2599 21 12.5399 21 13.1V19.9C21 20.4601 21 20.7401 20.891 20.954C20.7951 21.1422 20.6422 21.2951 20.454 21.391C20.2401 21.5 19.9601 21.5 19.4 21.5H15" stroke="white" stroke-opacity="0.7" stroke-width="2" stroke-linecap="round" stroke-linejoin="round"/>
</svg>
