<svg width="48" height="49" viewBox="0 0 48 49" fill="none" xmlns="http://www.w3.org/2000/svg">
<path d="M21.3542 33.5C22.0593 34.1224 22.9856 34.5 24 34.5C25.0145 34.5 25.9407 34.1224 26.6458 33.5M30 20.5C30 18.9087 29.3679 17.3826 28.2427 16.2574C27.1174 15.1321 25.5913 14.5 24 14.5C22.4087 14.5 20.8826 15.1321 19.7574 16.2574C18.6322 17.3826 18 18.9087 18 20.5C18 23.5902 17.2205 25.706 16.3497 27.1054C15.6151 28.2859 15.2479 28.8761 15.2613 29.0408C15.2763 29.2231 15.3149 29.2926 15.4618 29.4016C15.5945 29.5 16.1926 29.5 17.3889 29.5H30.6112C31.8074 29.5 32.4056 29.5 32.5382 29.4016C32.6852 29.2926 32.7238 29.2231 32.7387 29.0408C32.7522 28.8761 32.3849 28.2859 31.6504 27.1054C30.7795 25.706 30 23.5902 30 20.5Z" stroke="white" stroke-opacity="0.7" stroke-width="2" stroke-linecap="round" stroke-linejoin="round"/>
</svg>
